<svg xmlns="http://www.w3.org/2000/svg" version="1.1" xmlns:xlink="http://www.w3.org/1999/xlink" xmlns:svgjs="http://svgjs.dev/svgjs" width="1000" height="999" viewBox="0 0 1000 999"><g transform="matrix(1,0,0,1,-0.215743440233382,-0.21552769679306039)"><svg viewBox="0 0 343 343" data-background-color="#755bb4" preserveAspectRatio="xMidYMid meet" height="999" width="1000" xmlns="http://www.w3.org/2000/svg" xmlns:xlink="http://www.w3.org/1999/xlink"><g id="tight-bounds" transform="matrix(1,0,0,1,0.0740000000000407,0.07400000000001228)"><svg viewBox="0 0 342.85155851775386 342.85155851775386" height="342.85155851775386" width="342.85155851775386"><g><svg></svg></g><g><svg viewBox="0 0 342.85155851775386 342.85155851775386" height="342.85155851775386" width="342.85155851775386"><g><path d="M0 171.426c0-94.676 76.75-171.426 171.426-171.426 94.676 0 171.426 76.75 171.426 171.426 0 94.676-76.75 171.426-171.426 171.426-94.676 0-171.426-76.75-171.426-171.426zM171.426 339.071c92.588 0 167.645-75.057 167.645-167.645 0-92.588-75.057-167.645-167.645-167.645-92.588 0-167.645 75.057-167.645 167.645 0 92.588 75.057 167.645 167.645 167.645z" data-fill-palette-color="tertiary" fill="#ffffff" stroke="transparent"></path><ellipse rx="164.56874808852186" ry="164.56874808852186" cx="171.42577925887693" cy="171.42577925887693" fill="#ffffff" stroke="transparent" stroke-width="0" fill-opacity="1" data-fill-palette-color="tertiary"></ellipse></g><g transform="matrix(1,0,0,1,64.84655864529837,87.32327453098094)"><svg viewBox="0 0 213.1584412271571 168.20500945579198" height="168.20500945579198" width="213.1584412271571"><g><svg viewBox="0 0 213.1584412271571 168.20500945579198" height="168.20500945579198" width="213.1584412271571"><g transform="matrix(1,0,0,1,0,90.47008754597233)"><svg viewBox="0 0 213.1584412271571 77.73492190981966" height="77.73492190981966" width="213.1584412271571"><g id="textblocktransform"><svg viewBox="0 0 213.1584412271571 77.73492190981966" height="77.73492190981966" width="213.1584412271571" id="textblock"><g><svg viewBox="0 0 213.1584412271571 41.9265024248303" height="41.9265024248303" width="213.1584412271571"><g transform="matrix(1,0,0,1,0,0)"><svg width="213.1584412271571" viewBox="3.9000000953674316 -32.25 166.24000549316406 32.70000076293945" height="41.9265024248303" data-palette-color="#755bb4"><path d="M20.9-16.7Q24.2-15.9 25.78-14.03 27.35-12.15 27.35-9.1L27.35-9.1Q27.35 0.25 12.7 0.25L12.7 0.25Q8.4 0.25 3.9 0L3.9 0 4.25-9.6 3.9-32.2 15.35-32.25Q20.3-32.25 23.05-30.18 25.8-28.1 25.8-24.2L25.8-24.2Q25.8-21.6 24.53-19.65 23.25-17.7 20.9-16.7L20.9-16.7ZM18.85-23.3Q18.85-25.5 17.55-26.43 16.25-27.35 13-27.35L13-27.35 10.55-27.35 10.4-18.6 15.1-18.45Q17-18.95 17.93-20.1 18.85-21.25 18.85-23.3L18.85-23.3ZM13.85-4.6Q17-4.6 18.73-5.85 20.45-7.1 20.45-9.45L20.45-9.45Q20.45-13 15.85-13.85L15.85-13.85 10.3-13.75 10.25-10.2 10.4-4.8Q12.15-4.6 13.85-4.6L13.85-4.6ZM53.85-25.25L53.65-12.4 53.6-8.55Q53.65-4.25 50.77-1.93 47.9 0.4 42.55 0.4L42.55 0.4Q37.35 0.4 34.6-1.93 31.85-4.25 32-8.55L32-8.55 32.05-12.5 31.9-25.25 38.2-25.25 37.9-9.45Q37.85-7 39.07-5.85 40.3-4.7 42.8-4.7L42.8-4.7Q45.35-4.7 46.57-5.88 47.8-7.05 47.75-9.45L47.75-9.45 47.5-25.25 53.85-25.25ZM71.55-25.45Q77.4-25.45 80.52-22.38 83.65-19.3 83.65-13.6L83.65-13.6Q83.65-6.9 80.12-3.3 76.59 0.3 70 0.3L70 0.3Q66.14 0.3 60.45 0L60.45 0 60.7-7.5 60.45-25.25 71.55-25.45ZM71.15-4.5Q77.15-4.5 77.15-12.1L77.15-12.1Q77.15-16.55 75.7-18.48 74.25-20.4 71.05-20.4L71.05-20.4Q68.7-20.4 66.75-20.2L66.75-20.2 66.5-8.1 66.59-4.85Q67.8-4.7 69.05-4.6 70.3-4.5 71.15-4.5L71.15-4.5ZM99.79-25.45Q105.64-25.45 108.77-22.38 111.89-19.3 111.89-13.6L111.89-13.6Q111.89-6.9 108.37-3.3 104.84 0.3 98.24 0.3L98.24 0.3Q94.39 0.3 88.69 0L88.69 0 88.94-7.5 88.69-25.25 99.79-25.45ZM99.39-4.5Q105.39-4.5 105.39-12.1L105.39-12.1Q105.39-16.55 103.94-18.48 102.49-20.4 99.29-20.4L99.29-20.4Q96.94-20.4 94.99-20.2L94.99-20.2 94.74-8.1 94.84-4.85Q96.04-4.7 97.29-4.6 98.54-4.5 99.39-4.5L99.39-4.5ZM123.34-25.25L122.99-8.1 123.24 0 116.94 0 117.19-7.5 116.94-25.25 123.34-25.25ZM141.44-4.9L148.24-5.1 148.64-4.7 148.19 0 130.89 0 131.14-7.5 130.89-25.25 148.44-25.25 148.79-24.75 148.39-20.1 141.89-20.35 137.19-20.35 137.09-15.25 141.59-15.2 145.94-15.35 146.29-14.9 145.89-10.15 141.14-10.3 136.99-10.3 136.94-8.1 137.04-4.9 141.44-4.9ZM162.64-25.6Q166.24-25.6 169.54-24.35L169.54-24.35 168.59-18.75 167.69-18.5Q166.09-19.7 164.59-20.3 163.09-20.9 161.84-20.9L161.84-20.9Q160.44-20.9 159.64-20.23 158.84-19.55 158.84-18.6L158.84-18.6Q158.84-17.55 159.84-16.88 160.84-16.2 162.99-15.3L162.99-15.3Q165.24-14.35 166.66-13.55 168.09-12.75 169.11-11.33 170.14-9.9 170.14-7.75L170.14-7.75Q170.14-5.6 169.01-3.73 167.89-1.85 165.61-0.7 163.34 0.45 159.99 0.45L159.99 0.45Q158.19 0.45 156.06 0.08 153.94-0.3 151.94-1.1L151.94-1.1 152.79-7 153.44-7.45Q155.09-5.95 157.14-5.05 159.19-4.15 160.79-4.15L160.79-4.15Q162.19-4.15 163.06-4.85 163.94-5.55 163.94-6.6L163.94-6.6Q163.94-7.7 162.91-8.38 161.89-9.05 159.74-9.9L159.74-9.9Q157.49-10.85 156.06-11.68 154.64-12.5 153.61-13.95 152.59-15.4 152.59-17.55L152.59-17.55Q152.59-19.8 153.81-21.65 155.04-23.5 157.31-24.55 159.59-25.6 162.64-25.6L162.64-25.6Z" opacity="1" transform="matrix(1,0,0,1,0,0)" fill="#755bb4" class="wordmark-text-0" data-fill-palette-color="quaternary" id="text-0"></path></svg></g></svg></g><g transform="matrix(1,0,0,1,0,51.82434341127454)"><svg viewBox="0 0 213.1584412271571 25.910578498545128" height="25.910578498545128" width="213.1584412271571"><g transform="matrix(1,0,0,1,0,0)"><svg width="213.1584412271571" viewBox="0.9800000190734863 -38.09000015258789 317.94000244140625 38.650001525878906" height="25.910578498545128" data-palette-color="#755bb4"><path d="M28.42 0L0.98 0 0.98-5 4.66-5.79 4.66-29.74 0.98-30.52 0.98-35.55 4.66-35.55 13.23-35.55 17.72-35.55 17.72-30.52 13.23-29.74 13.23-6.57 21.68-6.57 21.88-11.52 28.42-11.52 28.42 0ZM43.75 0.51L43.75 0.51Q39.87 0.51 36.98-1.16 34.08-2.83 32.48-5.74 30.89-8.64 30.89-12.3L30.89-12.3 30.89-13.21Q30.89-17.24 32.3-20.34 33.72-23.44 36.45-25.18 39.19-26.93 43.17-26.9L43.17-26.9Q46.75-26.9 49.23-25.52 51.71-24.15 53-21.47 54.3-18.8 54.3-14.89L54.3-14.89 54.3-10.47 39.77-10.47 39.75-10.3Q39.94-9.06 40.59-8.09 41.24-7.13 42.38-6.57 43.53-6.01 45.22-6.01L45.22-6.01Q46.88-6.01 48.48-6.38 50.07-6.76 51.86-7.59L51.86-7.59 53.81-2.42Q52.03-1.15 49.46-0.32 46.9 0.51 43.75 0.51ZM39.67-15.89L39.77-15.77 46.49-15.77 46.49-16.41Q46.49-17.82 46.21-18.77 45.92-19.73 45.24-20.21 44.56-20.7 43.36-20.7L43.36-20.7Q42.07-20.7 41.3-20.08 40.53-19.46 40.18-18.37 39.82-17.29 39.67-15.89L39.67-15.89ZM68.85 0.56L68.85 0.56Q64.7 0.56 62.54-1.65 60.38-3.86 60.38-8.64L60.38-8.64 60.38-20.51 57.08-20.51 57.08-26.42 60.38-26.42 60.38-32.93 68.9-32.93 68.9-26.42 73.22-26.42 73.22-20.51 68.9-20.51 68.9-8.67Q68.9-7.37 69.49-6.86 70.07-6.35 71.1-6.35L71.1-6.35Q71.54-6.35 71.98-6.4 72.42-6.45 72.86-6.52L72.86-6.52 73.44-0.12Q72.32 0.2 71.18 0.38 70.05 0.56 68.85 0.56ZM81.57-24.83L77.93-24.83 77.93-32.06 77.93-38.09 84.11-38.09 84.11-31.37 81.57-24.83ZM96.91 0.51L96.91 0.51Q93.78 0.51 91.08-0.06 88.39-0.63 86.21-1.64L86.21-1.64 86.12-9.86 91.9-9.86 92.88-6.03Q93.39-5.71 94.2-5.48 95-5.25 96.13-5.25L96.13-5.25Q98.2-5.25 98.98-5.81 99.76-6.37 99.76-7.23L99.76-7.23Q99.76-8.06 98.87-8.75 97.98-9.45 95.08-9.99L95.08-9.99Q90.44-10.89 88.24-13.07 86.04-15.26 86.04-18.53L86.04-18.53Q86.04-20.75 87.07-22.63 88.09-24.51 90.42-25.67 92.76-26.83 96.66-26.83L96.66-26.83Q99.64-26.83 102.34-26.32 105.04-25.81 106.77-25.02L106.77-25.02 106.75-17.07 100.98-17.07 100.25-20.48Q99.69-20.87 98.98-21.07 98.27-21.26 97.39-21.26L97.39-21.26Q95.76-21.26 95-20.68 94.25-20.09 94.25-19.17L94.25-19.17Q94.25-18.63 94.57-18.09 94.9-17.55 95.88-17.07 96.86-16.58 98.74-16.16L98.74-16.16Q103.25-15.16 105.54-13.38 107.82-11.6 107.82-7.96L107.82-7.96Q107.82-4.05 105.02-1.77 102.23 0.51 96.91 0.51ZM140.81 0.51L140.81 0.51Q135.73 0.51 131.75-1.54 127.77-3.59 125.5-7.48 123.23-11.38 123.23-16.94L123.23-16.94 123.23-18.58Q123.23-23.71 125.32-27.65 127.4-31.59 131.27-33.83 135.14-36.06 140.46-36.06L140.46-36.06Q144.18-36.06 147.53-35.07 150.89-34.08 153.77-31.69L153.77-31.69 153.77-22.53 147.54-22.53 146.69-27.78Q145.86-28.34 144.94-28.76 144.03-29.17 142.99-29.39 141.95-29.61 140.76-29.61L140.76-29.61Q138.05-29.61 136.02-28.32 133.99-27.03 132.88-24.57 131.77-22.12 131.77-18.63L131.77-18.63 131.77-16.94Q131.77-13.67 132.92-11.19 134.07-8.72 136.13-7.32 138.19-5.93 140.9-5.93L140.9-5.93Q142.34-5.93 143.83-6.24 145.32-6.54 146.71-7.06L146.71-7.06 147.57-12.08 153.82-12.08 153.82-3.13Q151.7-1.66 148.4-0.57 145.1 0.51 140.81 0.51ZM169.96 0.51L169.96 0.51Q165.88 0.51 162.99-1.18 160.1-2.88 158.57-5.92 157.04-8.96 157.04-12.96L157.04-12.96 157.04-13.45Q157.04-17.41 158.57-20.43 160.1-23.46 162.98-25.18 165.86-26.9 169.91-26.9L169.91-26.9Q173.99-26.9 176.86-25.2 179.72-23.49 181.25-20.46 182.78-17.43 182.78-13.45L182.78-13.45 182.78-12.96Q182.78-8.98 181.25-5.94 179.72-2.91 176.86-1.2 173.99 0.51 169.96 0.51ZM169.96-6.01L169.96-6.01Q171.52-6.01 172.46-6.85 173.4-7.69 173.83-9.25 174.26-10.82 174.26-12.96L174.26-12.96 174.26-13.45Q174.26-15.53 173.83-17.08 173.4-18.63 172.45-19.49 171.5-20.36 169.91-20.36L169.91-20.36Q168.35-20.36 167.4-19.49 166.44-18.63 166.03-17.08 165.61-15.53 165.61-13.45L165.61-13.45 165.61-12.96Q165.61-10.79 166.03-9.23 166.44-7.67 167.4-6.84 168.35-6.01 169.96-6.01ZM199.5 0L185.66 0 185.66-5 188.73-5.79 188.73-20.61 185.07-21.39 185.07-26.42 196.84-26.42 197.13-22.73Q198.45-24.71 200.37-25.81 202.28-26.9 204.73-26.9L204.73-26.9Q208.44-26.9 210.59-24.39 212.73-21.88 212.73-16.41L212.73-16.41 212.73-5.79 215.81-5 215.81 0 201.65 0 201.65-5 204.14-5.79 204.14-16.43Q204.14-18.55 203.29-19.45 202.43-20.34 200.84-20.34L200.84-20.34Q199.65-20.34 198.79-19.91 197.94-19.48 197.3-18.63L197.3-18.63 197.3-5.79 199.5-5 199.5 0ZM231.36 0L217.52 0 217.52-5 220.6-5.79 220.6-20.61 216.93-21.39 216.93-26.42 228.7-26.42 229-22.73Q230.31-24.71 232.23-25.81 234.15-26.9 236.59-26.9L236.59-26.9Q240.3-26.9 242.45-24.39 244.6-21.88 244.6-16.41L244.6-16.41 244.6-5.79 247.67-5 247.67 0 233.51 0 233.51-5 236-5.79 236-16.43Q236-18.55 235.15-19.45 234.29-20.34 232.71-20.34L232.71-20.34Q231.51-20.34 230.66-19.91 229.8-19.48 229.17-18.63L229.17-18.63 229.17-5.79 231.36-5 231.36 0ZM262.69 0.51L262.69 0.51Q258.81 0.51 255.91-1.16 253.02-2.83 251.42-5.74 249.82-8.64 249.82-12.3L249.82-12.3 249.82-13.21Q249.82-17.24 251.24-20.34 252.65-23.44 255.39-25.18 258.12-26.93 262.1-26.9L262.1-26.9Q265.69-26.9 268.17-25.52 270.65-24.15 271.94-21.47 273.24-18.8 273.24-14.89L273.24-14.89 273.24-10.47 258.71-10.47 258.68-10.3Q258.88-9.06 259.53-8.09 260.17-7.13 261.32-6.57 262.47-6.01 264.15-6.01L264.15-6.01Q265.81-6.01 267.41-6.38 269.01-6.76 270.79-7.59L270.79-7.59 272.75-2.42Q270.96-1.15 268.4-0.32 265.84 0.51 262.69 0.51ZM258.61-15.89L258.71-15.77 265.42-15.77 265.42-16.41Q265.42-17.82 265.14-18.77 264.86-19.73 264.18-20.21 263.49-20.7 262.3-20.7L262.3-20.7Q261-20.7 260.23-20.08 259.47-19.46 259.11-18.37 258.76-17.29 258.61-15.89L258.61-15.89ZM288.86 0.51L288.86 0.51Q284.93 0.51 282.1-1.22 279.27-2.95 277.75-5.98 276.24-9.01 276.24-12.89L276.24-12.89 276.24-13.45Q276.24-17.43 277.81-20.46 279.39-23.49 282.21-25.2 285.03-26.9 288.79-26.9L288.79-26.9Q292.57-26.9 295.27-25.76 297.97-24.61 299.53-23.36L299.53-23.36 299.38-15.04 293.01-15.04 291.99-19.82Q291.57-20.24 290.88-20.51 290.18-20.78 289.72-20.78L289.72-20.78Q287.89-20.78 286.81-19.98 285.74-19.19 285.27-17.58 284.81-15.97 284.81-13.45L284.81-13.45 284.81-12.89Q284.81-10.28 285.43-8.78 286.05-7.28 287.01-6.64 287.96-6.01 288.96-6.01L288.96-6.01Q290.5-6.01 291.34-6.77 292.18-7.54 292.65-9.03L292.65-9.03 299.82-9.03 299.92-8.89Q299.34-5.74 298.09-3.65 296.85-1.56 294.64-0.52 292.43 0.51 288.86 0.51ZM314.33 0.56L314.33 0.56Q310.18 0.56 308.02-1.65 305.86-3.86 305.86-8.64L305.86-8.64 305.86-20.51 302.56-20.51 302.56-26.42 305.86-26.42 305.86-32.93 314.38-32.93 314.38-26.42 318.7-26.42 318.7-20.51 314.38-20.51 314.38-8.67Q314.38-7.37 314.96-6.86 315.55-6.35 316.57-6.35L316.57-6.35Q317.01-6.35 317.45-6.4 317.89-6.45 318.33-6.52L318.33-6.52 318.92-0.12Q317.79 0.2 316.66 0.38 315.52 0.56 314.33 0.56Z" opacity="1" transform="matrix(1,0,0,1,0,0)" fill="#755bb4" class="slogan-text-1" data-fill-palette-color="quaternary" id="text-1"></path></svg></g></svg></g></svg></g></svg></g><g transform="matrix(1,0,0,1,79.90862455919472,0)"><svg viewBox="0 0 53.341192108767665 80.5722465595281" height="80.5722465595281" width="53.341192108767665"><g><svg xmlns="http://www.w3.org/2000/svg" xmlns:xlink="http://www.w3.org/1999/xlink" version="1.1" x="0" y="0" viewBox="24.761856079101562 5 59.5826416015625 90" enable-background="new 0 0 100 100" xml:space="preserve" height="80.5722465595281" width="53.341192108767665" class="icon-icon-0" data-fill-palette-color="quaternary" id="icon-0"><g fill="#755bb4" data-fill-palette-color="quaternary"><path d="M73.76 35.603C86.875 48 91.5 66.25 65.633 82.379c3.64-4.928 5.654-9.794 6.096-14.669 0.951-10.516-5.606-19.072-12.835-26.752C48.298 29.7 47.51 18.84 56.413 6.782 54.578 22.641 64.6 26.944 73.76 35.603zM45.288 93.716c6.184-13.053 7.276-20.302-8.197-34.939-4.204-3.977-7.451-8.029-9.71-12.086-2.881 6.435-5.164 20.081 3.244 27.935C36.312 79.938 44.125 83.125 45.288 93.716zM56.709 43.014C48.183 33.954 41.999 21.253 54 5 21.497 17.692 19.625 38.125 39.151 56.597 55.603 72.158 54.75 80.75 48 95 79.875 71.5 68.709 55.764 56.709 43.014z" fill="#755bb4" data-fill-palette-color="quaternary"></path></g><g display="none" fill="#755bb4" data-fill-palette-color="quaternary"><path display="inline" d="M54 5C16.75 17.5 14.875 56.5 26.75 70.762c10.558 12.68 15.407 7.949 19.675 20.824" fill="#755bb4" data-fill-palette-color="quaternary"></path><line display="inline" x1="56.988" y1="5.261" x2="45.528" y2="136.262" fill="#755bb4" data-fill-palette-color="quaternary"></line><line display="inline" x1="54.131" y1="3.502" x2="42.67" y2="134.502" fill="#755bb4" data-fill-palette-color="quaternary"></line><path display="inline" d="M42.875 76" fill="#755bb4" data-fill-palette-color="quaternary"></path></g></svg></g></svg></g><g></g></svg></g></svg></g></svg></g><defs></defs></svg><rect width="342.85155851775386" height="342.85155851775386" fill="none" stroke="none" visibility="hidden"></rect></g></svg></g></svg>